# xmcd CD database file
#
# Track frame offsets:
#	187
#	20625
#	39530
#	61342
#	80192
#	105075
#	137190
#	159250
#	179800
#	204545
#	224055
#	245872
#	270190
#	296595
#
# Disc length: 4211 seconds
#
# Revision: 10
# Processed by: cddbd v1.5PL3 Copyright (c) Steve Scherf et al.
# Submitted via: CDex 1.50beta8
#
DISCID=d510710e
DTITLE=谷村新司 - 谷村新司ベスト 旅コレクション
DYEAR=1900
DGENRE=
TTITLE0=いい日旅立ち
TTITLE1=三都物語
TTITLE2=遠くで汽笛を聞きながら
TTITLE3=こころ前線
TTITLE4=祇園祭
TTITLE5=サライ
TTITLE6=さらば青春の時
TTITLE7=昴 -すばる-
TTITLE8=ノーザンエクスプレス
TTITLE9=空にしずめる物語
TTITLE10=歩きつづけて
TTITLE11=幸福 -しあわせ-
TTITLE12=最終フライト
TTITLE13=浪漫鉄道(途上篇)
EXTD=
EXTT0=
EXTT1=
EXTT2=
EXTT3=
EXTT4=
EXTT5=
EXTT6=
EXTT7=
EXTT8=
EXTT9=
EXTT10=
EXTT11=
EXTT12=
EXTT13=
PLAYORDER=
